<?xml version="1.0" encoding="utf-8"?>
<svg xmlns="http://www.w3.org/2000/svg" xmlns:xlink="http://www.w3.org/1999/xlink" width="600" height="400" viewBox="0 0 2400 1600">
<defs>
  <clipPath id="clip0300">
    <rect x="0" y="0" width="2400" height="1600"/>
  </clipPath>
</defs>
<polygon clip-path="url(#clip0300)" points="
0,1600 2400,1600 2400,0 0,0 
  " fill="#ffffff" fill-rule="evenodd" fill-opacity="1"/>
<defs>
  <clipPath id="clip0301">
    <rect x="480" y="0" width="1681" height="1600"/>
  </clipPath>
</defs>
<polygon clip-path="url(#clip0300)" points="
310.389,1453.94 2352.76,1453.94 2352.76,121.675 310.389,121.675 
  " fill="#ffffff" fill-rule="evenodd" fill-opacity="1"/>
<defs>
  <clipPath id="clip0302">
    <rect x="310" y="121" width="2043" height="1333"/>
  </clipPath>
</defs>
<polyline clip-path="url(#clip0300)" style="stroke:#000000; stroke-width:4; stroke-opacity:1; fill:none" points="
  310.389,1453.94 2352.76,1453.94 
  "/>
<polyline clip-path="url(#clip0300)" style="stroke:#000000; stroke-width:4; stroke-opacity:1; fill:none" points="
  310.389,1453.94 310.389,121.675 
  "/>
<polyline clip-path="url(#clip0300)" style="stroke:#000000; stroke-width:4; stroke-opacity:1; fill:none" points="
  493.031,1453.94 493.031,1433.96 
  "/>
<polyline clip-path="url(#clip0300)" style="stroke:#000000; stroke-width:4; stroke-opacity:1; fill:none" points="
  912.302,1453.94 912.302,1433.96 
  "/>
<polyline clip-path="url(#clip0300)" style="stroke:#000000; stroke-width:4; stroke-opacity:1; fill:none" points="
  1331.57,1453.94 1331.57,1433.96 
  "/>
<polyline clip-path="url(#clip0300)" style="stroke:#000000; stroke-width:4; stroke-opacity:1; fill:none" points="
  1750.84,1453.94 1750.84,1433.96 
  "/>
<polyline clip-path="url(#clip0300)" style="stroke:#000000; stroke-width:4; stroke-opacity:1; fill:none" points="
  2170.11,1453.94 2170.11,1433.96 
  "/>
<polyline clip-path="url(#clip0300)" style="stroke:#000000; stroke-width:4; stroke-opacity:1; fill:none" points="
  310.389,1416.24 341.024,1416.24 
  "/>
<polyline clip-path="url(#clip0300)" style="stroke:#000000; stroke-width:4; stroke-opacity:1; fill:none" points="
  310.389,1175.1 341.024,1175.1 
  "/>
<polyline clip-path="url(#clip0300)" style="stroke:#000000; stroke-width:4; stroke-opacity:1; fill:none" points="
  310.389,933.955 341.024,933.955 
  "/>
<polyline clip-path="url(#clip0300)" style="stroke:#000000; stroke-width:4; stroke-opacity:1; fill:none" points="
  310.389,692.815 341.024,692.815 
  "/>
<polyline clip-path="url(#clip0300)" style="stroke:#000000; stroke-width:4; stroke-opacity:1; fill:none" points="
  310.389,451.674 341.024,451.674 
  "/>
<polyline clip-path="url(#clip0300)" style="stroke:#000000; stroke-width:4; stroke-opacity:1; fill:none" points="
  310.389,210.534 341.024,210.534 
  "/>
<g clip-path="url(#clip0300)">
<text style="fill:#000000; fill-opacity:1; font-family:Arial,Helvetica Neue,Helvetica,sans-serif; font-size:95px; text-anchor:middle;" transform="rotate(0, 493.031, 1548.74)" x="493.031" y="1548.74">POVME</text>
</g>
<g clip-path="url(#clip0300)">
<text style="fill:#000000; fill-opacity:1; font-family:Arial,Helvetica Neue,Helvetica,sans-serif; font-size:95px; text-anchor:middle;" transform="rotate(0, 912.302, 1548.74)" x="912.302" y="1548.74">MDPocket</text>
</g>
<g clip-path="url(#clip0300)">
<text style="fill:#000000; fill-opacity:1; font-family:Arial,Helvetica Neue,Helvetica,sans-serif; font-size:95px; text-anchor:middle;" transform="rotate(0, 1331.57, 1548.74)" x="1331.57" y="1548.74">ANA HP</text>
</g>
<g clip-path="url(#clip0300)">
<text style="fill:#000000; fill-opacity:1; font-family:Arial,Helvetica Neue,Helvetica,sans-serif; font-size:95px; text-anchor:middle;" transform="rotate(0, 1750.84, 1548.74)" x="1750.84" y="1548.74">ANA LP</text>
</g>
<g clip-path="url(#clip0300)">
<text style="fill:#000000; fill-opacity:1; font-family:Arial,Helvetica Neue,Helvetica,sans-serif; font-size:95px; text-anchor:middle;" transform="rotate(0, 2170.11, 1548.74)" x="2170.11" y="1548.74">Epock</text>
</g>
<g clip-path="url(#clip0300)">
<text style="fill:#000000; fill-opacity:1; font-family:Arial,Helvetica Neue,Helvetica,sans-serif; font-size:95px; text-anchor:end;" transform="rotate(0, 286.389, 1450.74)" x="286.389" y="1450.74">0</text>
</g>
<g clip-path="url(#clip0300)">
<text style="fill:#000000; fill-opacity:1; font-family:Arial,Helvetica Neue,Helvetica,sans-serif; font-size:95px; text-anchor:end;" transform="rotate(0, 286.389, 1209.6)" x="286.389" y="1209.6">10</text>
</g>
<g clip-path="url(#clip0300)">
<text style="fill:#000000; fill-opacity:1; font-family:Arial,Helvetica Neue,Helvetica,sans-serif; font-size:95px; text-anchor:end;" transform="rotate(0, 286.389, 968.455)" x="286.389" y="968.455">20</text>
</g>
<g clip-path="url(#clip0300)">
<text style="fill:#000000; fill-opacity:1; font-family:Arial,Helvetica Neue,Helvetica,sans-serif; font-size:95px; text-anchor:end;" transform="rotate(0, 286.389, 727.315)" x="286.389" y="727.315">30</text>
</g>
<g clip-path="url(#clip0300)">
<text style="fill:#000000; fill-opacity:1; font-family:Arial,Helvetica Neue,Helvetica,sans-serif; font-size:95px; text-anchor:end;" transform="rotate(0, 286.389, 486.174)" x="286.389" y="486.174">40</text>
</g>
<g clip-path="url(#clip0300)">
<text style="fill:#000000; fill-opacity:1; font-family:Arial,Helvetica Neue,Helvetica,sans-serif; font-size:95px; text-anchor:end;" transform="rotate(0, 286.389, 245.034)" x="286.389" y="245.034">50</text>
</g>
<g clip-path="url(#clip0300)">
<text style="fill:#000000; fill-opacity:1; font-family:Arial,Helvetica Neue,Helvetica,sans-serif; font-size:84px; text-anchor:middle;" transform="rotate(0, 1331.57, 73.2)" x="1331.57" y="73.2">1PRN 600 frames calculation performance</text>
</g>
<g clip-path="url(#clip0300)">
<text style="fill:#000000; fill-opacity:1; font-family:Arial,Helvetica Neue,Helvetica,sans-serif; font-size:143px; text-anchor:middle;" transform="rotate(-90, 129.24, 787.808)" x="129.24" y="787.808">Rate (frames / s)</text>
</g>
<polygon clip-path="url(#clip0302)" points="
375.258,1415.14 375.258,1416.24 610.804,1416.24 610.804,1415.14 375.258,1415.14 375.258,1415.14 
  " fill="#006400" fill-rule="evenodd" fill-opacity="1"/>
<polyline clip-path="url(#clip0302)" style="stroke:#000000; stroke-width:4; stroke-opacity:1; fill:none" points="
  375.258,1415.14 375.258,1416.24 610.804,1416.24 610.804,1415.14 375.258,1415.14 
  "/>
<polygon clip-path="url(#clip0302)" points="
794.529,1391.83 794.529,1416.24 1030.07,1416.24 1030.07,1391.83 794.529,1391.83 794.529,1391.83 
  " fill="#daa520" fill-rule="evenodd" fill-opacity="1"/>
<polyline clip-path="url(#clip0302)" style="stroke:#000000; stroke-width:4; stroke-opacity:1; fill:none" points="
  794.529,1391.83 794.529,1416.24 1030.07,1416.24 1030.07,1391.83 794.529,1391.83 
  "/>
<polygon clip-path="url(#clip0302)" points="
1213.8,756.685 1213.8,1416.24 1449.35,1416.24 1449.35,756.685 1213.8,756.685 1213.8,756.685 
  " fill="#00008b" fill-rule="evenodd" fill-opacity="1"/>
<polyline clip-path="url(#clip0302)" style="stroke:#000000; stroke-width:4; stroke-opacity:1; fill:none" points="
  1213.8,756.685 1213.8,1416.24 1449.35,1416.24 1449.35,756.685 1213.8,756.685 
  "/>
<polygon clip-path="url(#clip0302)" points="
1633.07,561.807 1633.07,1416.24 1868.62,1416.24 1868.62,561.807 1633.07,561.807 1633.07,561.807 
  " fill="#00bfff" fill-rule="evenodd" fill-opacity="1"/>
<polyline clip-path="url(#clip0302)" style="stroke:#000000; stroke-width:4; stroke-opacity:1; fill:none" points="
  1633.07,561.807 1633.07,1416.24 1868.62,1416.24 1868.62,561.807 1633.07,561.807 
  "/>
<polygon clip-path="url(#clip0302)" points="
2052.34,159.381 2052.34,1416.24 2287.89,1416.24 2287.89,159.381 2052.34,159.381 2052.34,159.381 
  " fill="#dc143c" fill-rule="evenodd" fill-opacity="1"/>
<polyline clip-path="url(#clip0302)" style="stroke:#000000; stroke-width:4; stroke-opacity:1; fill:none" points="
  2052.34,159.381 2052.34,1416.24 2287.89,1416.24 2287.89,159.381 2052.34,159.381 
  "/>
</svg>
